<svg xmlns="http://www.w3.org/2000/svg" width="24" height="29" viewBox="0 0 24 29" fill="none">
  <path d="M1.3617 3.31677C1.3617 3.31677 1.41729 3.30293 1.45203 3.296L10.8807 0.374609C11.4087 0.208464 11.9785 0.208464 12.5065 0.374609L21.9352 3.296C21.9352 3.296 21.9908 3.30985 22.0255 3.31677C22.0255 3.31677 22.0394 3.31677 22.0603 3.32369C22.095 3.33062 22.1436 3.34446 22.2062 3.36523C22.3312 3.40677 22.491 3.46907 22.6509 3.55907C22.9566 3.73906 23.1581 3.97443 23.1581 4.33441V14.8777C23.1581 16.1031 22.6995 17.4184 21.9005 18.7683C21.1084 20.1113 20.0106 21.4336 18.8085 22.6589C16.3975 25.1165 13.6252 27.1171 12.2286 28.024C11.909 28.2317 11.4991 28.2317 11.1795 28.024C9.77592 27.1102 7.01056 25.1095 4.59955 22.652C3.39751 21.4266 2.29971 20.1044 1.50762 18.7614C0.715526 17.4184 0.25 16.1031 0.25 14.8708V4.33441C0.25 3.97443 0.444548 3.73906 0.757215 3.55907C0.910075 3.46907 1.06988 3.40677 1.2019 3.36523C1.26443 3.34446 1.31307 3.33062 1.34781 3.32369C1.3617 3.32369 1.3756 3.32369 1.38255 3.31677H1.3617Z" stroke="#0046C7" stroke-width="0.5"/>
  <g transform="translate(3 12)">
    <path d="M2.6403 0H1.93854L2.6403 1.64761L2.02191 3.07369L0.701764 0H0L1.80652 4.23671H2.24425L2.99466 2.49218L3.74506 4.23671H4.18279L5.98931 0H5.28755L3.9674 3.10138L2.64725 0H2.6403Z" fill="#0046C7"/>
    <path d="M9.32461 0L8.11563 2.1322L6.90665 0H6.15625L7.80991 2.88678V4.21594H8.44914V2.88678L10.075 0H9.32461Z" fill="#0046C7"/>
    <path d="M14.0146 4.23665H17.3567V3.50977H14.0146V4.23665Z" fill="#0046C7"/>
    <path d="M14.0146 0.726887H17.3567V0H14.0146V0.726887Z" fill="#0046C7"/>
    <path d="M14.0146 2.47152H17.3567V1.74463H14.0146V2.47152Z" fill="#0046C7"/>
    <path d="M10.2694 0V0.706119H12.472L10.0054 4.24363H13.5906V3.54444H11.3255L13.813 0.00692223H10.2694V0Z" fill="#0046C7"/>
  </g>
</svg>

